<?xml version="1.0" encoding="UTF-8"?>
<svg viewBox="0 0 74 70" version="1.1" xmlns="http://www.w3.org/2000/svg" xmlns:xlink="http://www.w3.org/1999/xlink">
    <title>Autoscaling icon</title>
    <defs>
        <linearGradient x1="42.8471684%" y1="0%" x2="42.8471697%" y2="100%" id="Autoscaling-icon-gradient">
            <stop stop-color="#3EFCC9" offset="0%"></stop>
            <stop stop-color="#8F52F8" offset="100%"></stop>
        </linearGradient>
    </defs>
    <g id="Icon" stroke-width="1" fill="none" fill-rule="evenodd" stroke-linejoin="bevel">
        <g id="Content" transform="translate(1.000000, -3.000000)" >
            <g id="Autoscaling-icon" transform="translate(0.000000, 3.000000)">
                <path d="M50.264,51.407 L50.264,54.828 L36,69.092 L21.736,54.828 L21.736,51.407 L36,65.671 L50.264,51.407 Z M32.6621156,35.0001156 L26.97,29.308 L26.97,18.593 L21.736,18.593 L21.736,15.172 L26.97,15.172 L26.97,25.886 L34.373,33.289 L32.6621156,35.0001156 Z M50.264,15.172 L50.264,18.593 L45.03,18.593 L45.03,29.308 L39.3378844,35.0001156 L37.627,33.289 L45.03,25.886 L45.03,15.172 L50.264,15.172 Z" id="Combined-Shape"></path>
                <path d="M0.448,35.0005 L0.448,44.147 L13.445,44.147 L13.445,50.975 L27.71,36.711 L27.71,33.289 L13.445,47.554 L13.445,40.726 L0.448,40.726 L0.448,35.0005 Z" id="Combined-Shape"></path>
                <path d="M71.552,35.0005 L71.552,44.147 L58.555,44.147 L58.555,50.975 L44.291,36.711 L44.291,33.289 L58.555,47.554 L58.555,40.726 L71.552,40.726 L71.552,35.0005 Z" id="Combined-Shape"></path>
                <polyline id="Fill-4" points="45.03 51.16 45.03 40.693 37.627 33.289 45.03 25.886 45.03 15.172 50.264 15.172 36 0.908 21.736 15.172 26.97 15.172 26.97 25.886 34.373 33.289 26.97 40.693 26.97 51.407 21.736 51.407 36 65.671 50.264 51.407 45.03 51.407 45.03 51.16"></polyline>
                <polyline id="Fill-5" points="27.71 33.289 13.445 19.025 13.445 25.853 0.448 25.853 0.448 40.726 13.445 40.726 13.445 47.554 27.71 33.289"></polyline>
                <polyline id="Fill-6" points="71.552 25.853 58.555 25.853 58.555 19.025 44.291 33.289 58.555 47.554 58.555 40.726 71.552 40.726 71.552 25.853"></polyline>
            </g>
        </g>
    </g>
</svg>