<?xml version="1.0" encoding="utf-8"?>
<svg version="1.1" id="Layer_1" xmlns="http://www.w3.org/2000/svg" xmlns:xlink="http://www.w3.org/1999/xlink" x="0px" y="0px"
	 viewBox="0 0 1588 960" style="enable-background:new 0 0 1588 960;" xml:space="preserve">
 <title>Icon/AWS</title>
    <defs>
        <linearGradient x1="42.8471684%" y1="0%" x2="42.8471697%" y2="100%" id="AWS-icon-gradient">
            <stop stop-color="#3EFCC9" offset="0%"></stop>
            <stop stop-color="#8F52F8" offset="100%"></stop>
        </linearGradient>
    </defs>
<g id="Icon" stroke-width="1" fill="none">
	<g id="Icon/EBS" >
	<path fill="url(#AWS-icon-gradient)" d="M687,371c23.3-100.1,46.5-198.5,68.9-297c7.2-31.7,17.7-52.8,58-53.1c41.3-0.4,55.3,18.9,63.1,53.8
		c22.5,100.3,46.2,200.2,77.6,301.5c26.4-101.4,54.8-202.2,78.3-304.3c9.8-42.5,32.1-53,70.9-50.1c26.6,2,34.6,13.4,27.1,37.5
		c-41.4,132.2-83.5,264.3-124.3,396.7c-11.5,37.2-40.1,31.8-68.2,32.9c-31.8,1.2-41.9-17.3-48.2-44.2
		c-22.8-96.8-46.8-193.4-80.9-290.3c-22.4,93.6-45.3,187.1-66.8,281c-7.3,31.7-16.2,54-56.8,54.5c-38.5,0.4-57.1-12.3-67.6-48.9
		c-34.9-121.4-72.6-241.9-108.2-363.1c-5.5-18.8-28.3-48,10.8-53.9c27.9-4.2,65.4-15,77,31.6c22.9,92,47.2,183.6,70.7,275.4
		C671.9,344.5,672.5,359,687,371z"/>
	<path fill="url(#AWS-icon-gradient)" d="M805.4,952.5c-293.3-5-539-90.4-753.1-264c-8.2-6.6-16.6-13.3-23.6-21c-8.8-9.7-28.8-17.5-18.8-33
		c12.4-19.2,28.4-2.8,41.1,4.3c150.3,83.3,310,139.1,479.1,170.3c280.1,51.8,552.5,24.7,818.7-74.3c9.9-3.7,19.3-8.9,29.4-11.5
		c20.2-5.3,44.9-28.4,59.5,2.8c12.1,25.7-15.1,36-31.7,47c-144.7,96.4-305.8,147.9-477.1,169.2C881.8,948.1,834.6,954.9,805.4,952.5
		z"/>
	<path fill="url(#AWS-icon-gradient)" d="M1322.6,501.8c-41,0.4-80.2-7.5-118.3-22.2c-19.5-7.5-34.3-19.3-36.9-40.4c-3.7-29.3,1.7-51.2,39.3-34.2
		c44.3,20.1,90.9,25,138.9,21.9c37.8-2.4,72.3-13.7,79.3-55c7-41.8-26.7-56.9-59.2-68.4c-33-11.7-67.1-20.4-99.7-33
		c-63.9-24.9-94.9-70.8-91.7-132c2.9-55.6,40.8-99.7,102.6-119.2c59.4-18.8,117.9-11.3,175.4,8.1c21.1,7.1,37.1,20.5,38.1,45.2
		c1,25.1-2.9,42.8-35.6,29c-42.8-18-87.6-23.7-134-16.2c-30.5,4.9-54.9,18-58,51c-2.8,30.5,17.4,48.3,44.2,58.1
		c32.9,12,66.2,22.7,99.3,34.3c81.8,28.8,112.3,68.9,107.2,140.9c-4.6,64.2-58.2,116.6-133,128.4
		C1361.4,501.1,1341.9,500.7,1322.6,501.8z"/>
	<path fill="url(#AWS-icon-gradient)" d="M1279.5,662.6c5.7-24.8,51.1-42,79.7-51.9c41.9-14.5,85.5-18.2,129.6-16.4c84.6,3.5,103.2,24.8,86.4,106.1
		c-13.4,64.3-38.8,123.7-87.3,170.5c-8,7.8-17,21.9-30.4,11.8c-10.5-7.9-1.4-19.2,1.8-28.8c13.2-39.8,28.7-79.1,39.2-119.6
		c14.6-56.2,0.7-75-58.1-75.7c-45.3-0.6-90.8,6-136.2,8.9C1278.9,670.1,1279.5,662.6,1279.5,662.6z"/>
	<path fill="url(#AWS-icon-gradient)" d="M463.2,407c-8.7-15.9-9.7-37.3-10.1-56.2c-1.3-54.4,0.4-108.9-0.7-163.4C451,119.9,441,53.7,368.3,26
		c-84.7-32.3-169.4-21.9-249,19.8c-22,11.5-19.3,37.9-13,57.2c9.5,29.3,30.2,6.7,43.1,2.5c35.3-11.6,70.2-20.7,107.8-20.1
		c79.1,1.2,107.4,31.4,106.2,109.2c-0.5,28.3-8.8,31.4-33.6,26c-55.5-12.2-111.7-15-166,5.6c-68.4,25.9-101.2,89.6-87.7,165.9
		c12,67.9,59.5,105.4,134.3,108c61.8,2.1,112.8-20.6,157.5-66.5c6.5,8.6,9.8,12.6,12.8,16.9c15.7,22.6,26,51.7,64.7,29.2
		C479.5,460,480.9,439,463.2,407z M223.6,428.7c-20.6,0.7-49.6-13.9-56.1-56.6c-6.2-40.9,7.1-72.5,48.8-86.8
		c41.1-14.1,82.6-8.8,124.3-1.5c17,2.9,21.5,11.1,22.6,28.1C367.5,376.6,315.7,427.8,223.6,428.7z"/>
	</g>
</g>
</svg>
