<?xml version="1.0" encoding="utf-8"?>
<svg version="1.1" id="Layer_1" xmlns="http://www.w3.org/2000/svg" xmlns:xlink="http://www.w3.org/1999/xlink" x="0px" y="0px"
     viewBox="0 0 2207 2500" xml:space="preserve">
<title>Icon/CloudWatch</title>
    <defs>
        <linearGradient x1="42.8471684%" y1="0%" x2="42.8471697%" y2="100%" id="CloudWatch-icon-gradient">
            <stop stop-color="#3EFCC9" offset="0%"></stop>
            <stop stop-color="#8F52F8" offset="100%"></stop>
        </linearGradient>
    </defs>
    <g id="Icon" stroke-width="1" fill="none" fill-rule="evenodd" stroke-linejoin="round">
        <g id="Icon/CloudWatch" >

            <g>
                <path d="M420.3,1764.2l-197.6-68.7V478.3L420.3,401V1764.2z M237.7,1684.8l167.6,58.3V422.9l-167.6,65.6V1684.8z"/>
            </g>
            <g>
                <path d="M404.5,1763V402.5l119,27.3v1306L404.5,1763z M419.5,421.4v1322.8l89-20.4V441.7L419.5,421.4z"/>
            </g>
            <g>
                <path d="M777.6,1866.7l-269-75.7V121.2l269-117.7V1866.7z M523.5,1779.7l239,67.2V26.5l-239,104.6V1779.7z"/>
            </g>
            <g>
                <path d="M1111,1962.3l-245.2-76.1v-506.3l245.2,33.8V1962.3z M880.8,1875.1l215.2,66.8v-515.2L880.8,1397V1875.1z"/>
            </g>
            <g>
                <path d="M1111,2488.1L0.4,1940.9v-237.5L1111,2089.7V2488.1z M15.4,1931.5L1096,2464v-363.7L15.4,1724.5V1931.5z"/>
            </g>
            <g>
                <path d="M1096,2488.1v-398.5l5-1.8l1105.5-384.5v237.5l-4.2,2.1L1096,2488.1z M1111,2100.3V2464l1080.6-532.5v-207.1
                    L1111,2100.3z"/>
            </g>
            <g>
                <path d="M762.6,1865.6V4.2l896.3,339.1l0,5.2l-8,943.3l-770,103.2v452.4L762.6,1865.6z M777.6,25.9v1822.2l88.2-13.6
                    v-452.6l770.1-103.2l7.8-925.1L777.6,25.9z"/>
            </g>
            <g>
                <path d="M1096,1962.1v-548.6l800.9-89v403L1096,1962.1z M1111,1426.9v515.2l770.9-225.8v-375L1111,1426.9z"/>
            </g>
            <polygon points="222.3,1666.3 0,1708 31.8,1721.9 238.2,1680.2 "/>
            <polygon points="2207,1706 1889.4,1666.3 1889.4,1686.1 2179.1,1720.9 "/>
            <polygon points="1897.4,1324.9 1651.3,1285.2 1619.5,1293.2 1879.8,1333.9 "/>
        </g>
    </g>
</svg>