<?xml version="1.0" encoding="UTF-8"?>
<svg viewBox="0 0 41 49" version="1.1" xmlns="http://www.w3.org/2000/svg" xmlns:xlink="http://www.w3.org/1999/xlink">
    <title>EC2 icon</title>
    <defs></defs>
    <g id="Symbols" stroke="none" stroke-width="1" fill="none" fill-rule="evenodd" stroke-linejoin="round">
        <g id="Header/Icon/Big" transform="translate(-13.000000, -9.000000)" stroke="#171617">
            <g id="Dashboard-Icon">
                <g id="EC2-icon" transform="translate(14.000000, 10.000000)">
                    <path d="M1.95560542,38.2474097 L0,37.271157 L0,9.72941391 L1.95560542,8.75316125 L1.95560542,38.2474097 L1.95560542,38.2474097 Z M4.11540831,37.7403975 L1.95560542,38.2474097 L1.95560542,8.75316125 L4.11540831,9.24610476 L4.11540831,37.7403975 L4.11540831,37.7403975 Z M6.51315558,6.47923474 L6.51315558,40.5213362 L4.11540831,39.324713 L4.11540831,7.67528697 L6.51315558,6.47923474 Z M9.1906019,39.7657363 L6.51315558,40.5213362 L6.51315558,6.47923474 L9.1906019,7.23779137 L9.1906019,39.7657363 L9.1906019,39.7657363 Z M12.1997976,3.64068023 L12.1997976,3.64125114 L12.1997976,43.3593198 L9.1906019,41.8578318 L9.1906019,5.14273914 L12.1997976,3.64068023 Z M15.6065206,42.1187893 L12.1997976,43.3593198 L12.1997976,3.64125114 L15.6065206,4.88524756 L15.6065206,42.1187893 L15.6065206,42.1187893 Z M19.4948522,0 L19.4948522,7.79617286e-15 L19.4948522,47 L15.6065206,45.0600547 L15.6065206,1.94108715 L19.4948522,0 Z M39,37.2660188 L19.4948522,47 L19.4948522,0 L39,9.73455208 L39,37.2660188 Z" id="Combined-Shape"></path>
                </g>
            </g>
        </g>
    </g>
</svg>