<?xml version="1.0" encoding="utf-8"?>
<!-- Generator: Adobe Illustrator 21.1.0, SVG Export Plug-In . SVG Version: 6.00 Build 0)  -->
<svg version="1.1" id="Layer_1" xmlns="http://www.w3.org/2000/svg" xmlns:xlink="http://www.w3.org/1999/xlink" x="0px" y="0px"
	 viewBox="0 0 960 219" style="enable-background:new 0 0 960 219;" xml:space="preserve">
<style type="text/css">
	.st0{fill:url(#path5223_1_);}
	.st1{fill:#00C3FB;}
	.st2{fill:#423744;}
	.st3{fill:url(#path5223_2_);}
	.st4{fill:#00C3FA;}
	.st5{fill:#F4F4F4;}
	.st6{enable-background:new    ;}
	.st7{fill:#FFFFFF;}
</style>
<g>
	<g class="st6">
		<path class="st7" d="M242.7,144.6V65.3h52.8v11.1h-40.3V100H289v10.4h-33.7v34.2H242.7z"/>
	</g>
	<g class="st6">
		<path class="st7" d="M305.5,144.6V65.3H318v79.3H305.5z"/>
	</g>
	<g class="st6">
		<path class="st7" d="M338.2,65.3l23.9,63.6l23.8-63.6h13.3l-31.7,79.3h-10.7l-31.8-79.3H338.2z"/>
	</g>
	<g class="st6">
		<path class="st7" d="M460.3,133.5v11.1h-54.4V65.3h53.4v11.1h-40.9v22.6h35.4v10.4h-35.4v24.2H460.3z"/>
	</g>
	<g class="st6">
		<path class="st7" d="M539.9,144.6V87.5l-23.6,43.2h-6.9l-23.7-43.2v57.1h-12.5V65.3h13.4l26.2,48.5l26.2-48.5h13.4v79.3H539.9z"/>
	</g>
	<g class="st6">
		<path class="st7" d="M618.9,133.5v11.1h-54.4V65.3h53.4v11.1H577v22.6h35.4v10.4H577v24.2H618.9z"/>
	</g>
	<g class="st6">
		<path class="st7" d="M692.6,76.3h-26.4v68.2h-12.6V76.3h-26.5V65.3h65.5V76.3z"/>
	</g>
	<g class="st6">
		<path class="st7" d="M702.4,144.6V65.3h34.5c3.6,0,6.9,0.7,9.9,2.2c3,1.5,5.6,3.4,7.8,5.9c2.2,2.4,3.9,5.2,5.1,8.3
			c1.2,3.1,1.8,6.2,1.8,9.4c0,2.7-0.4,5.3-1.1,7.7c-0.7,2.5-1.8,4.7-3.1,6.8c-1.3,2.1-3,3.9-4.9,5.4c-1.9,1.5-4.1,2.7-6.4,3.4
			l18.7,30.2h-14.2L733.2,117h-18.3v27.6H702.4z M714.9,105.9h21.9c1.8,0,3.4-0.4,4.9-1.2s2.7-1.9,3.7-3.2c1-1.4,1.9-3,2.5-4.7
			c0.6-1.8,0.9-3.7,0.9-5.7s-0.4-3.9-1.1-5.7c-0.7-1.8-1.6-3.4-2.8-4.7c-1.2-1.3-2.5-2.4-4-3.2c-1.5-0.8-3.1-1.2-4.7-1.2h-21.2
			V105.9z"/>
	</g>
	<g class="st6">
		<path class="st7" d="M775.5,144.6V65.3H788v79.3H775.5z"/>
	</g>
	<g class="st6">
		<path class="st7" d="M798.2,104.4c0-4.8,0.9-9.5,2.6-14.2c1.7-4.7,4.2-9,7.5-12.7c3.3-3.8,7.4-6.8,12.1-9.1
			c4.8-2.3,10.2-3.5,16.2-3.5c7.2,0,13.4,1.6,18.5,4.8c5.1,3.2,9,7.4,11.6,12.5l-9.8,6.6c-1.1-2.4-2.5-4.4-4-6
			c-1.6-1.6-3.3-2.9-5.1-3.9c-1.9-1-3.8-1.7-5.8-2.1c-2-0.4-3.9-0.6-5.8-0.6c-4.2,0-7.8,0.8-10.9,2.5c-3.1,1.7-5.8,3.9-7.9,6.6
			c-2.1,2.8-3.7,5.8-4.8,9.3c-1.1,3.4-1.6,6.9-1.6,10.3c0,3.9,0.6,7.6,1.9,11.1c1.3,3.5,3,6.6,5.3,9.3c2.3,2.7,5,4.8,8.1,6.4
			c3.1,1.6,6.6,2.4,10.3,2.4c1.9,0,3.9-0.2,6-0.7c2-0.5,4-1.3,5.9-2.3c1.9-1.1,3.6-2.4,5.3-4.1c1.6-1.6,2.9-3.6,4-5.9l10.4,5.9
			c-1.3,3-3.1,5.6-5.4,7.9c-2.3,2.3-4.9,4.2-7.8,5.8c-2.9,1.6-6,2.8-9.2,3.6s-6.4,1.2-9.5,1.2c-5.6,0-10.7-1.2-15.3-3.6
			c-4.6-2.4-8.6-5.5-12-9.3c-3.4-3.8-6-8.2-7.8-13.1C799.2,114.4,798.2,109.4,798.2,104.4z"/>
	</g>
	<g class="st6">
		<path class="st7" d="M926,83.9c-0.7-0.8-1.8-1.7-3.2-2.6c-1.4-0.9-3.1-1.8-5-2.6c-1.9-0.8-4-1.5-6.3-2c-2.3-0.5-4.6-0.8-7-0.8
			c-5.3,0-9.2,1-11.7,2.9c-2.5,1.9-3.7,4.6-3.7,8c0,1.9,0.4,3.5,1.2,4.7c0.8,1.2,2,2.3,3.6,3.2c1.6,0.9,3.7,1.8,6.1,2.5
			c2.5,0.7,5.3,1.5,8.6,2.3c4,1,7.7,2,10.9,3.2c3.2,1.2,6,2.6,8.2,4.4c2.2,1.7,4,3.8,5.2,6.3c1.2,2.5,1.8,5.5,1.8,9.1
			c0,4-0.8,7.5-2.3,10.4c-1.5,2.9-3.6,5.3-6.3,7.1c-2.6,1.8-5.7,3.2-9.2,4c-3.5,0.9-7.3,1.3-11.3,1.3c-6,0-11.9-0.9-17.5-2.7
			c-5.6-1.8-10.7-4.5-15.2-8l5.7-10.7c1,1,2.4,2,4.2,3.2c1.8,1.2,3.9,2.3,6.4,3.3c2.4,1,5,1.9,7.9,2.6c2.8,0.7,5.8,1.1,8.8,1.1
			c4.9,0,8.7-0.9,11.4-2.6c2.7-1.7,4-4.2,4-7.6c0-2-0.5-3.7-1.5-5c-1-1.3-2.4-2.5-4.3-3.5c-1.9-1-4.1-1.9-6.8-2.7s-5.7-1.7-9.2-2.6
			c-3.9-1-7.4-2.1-10.3-3.3c-2.9-1.2-5.4-2.5-7.3-4.2c-1.9-1.6-3.4-3.6-4.4-5.8c-1-2.2-1.5-4.9-1.5-8c0-3.9,0.7-7.3,2.2-10.3
			c1.5-3,3.5-5.5,6.1-7.6c2.6-2,5.6-3.6,9.1-4.6c3.5-1,7.3-1.6,11.4-1.6c5.4,0,10.3,0.9,14.9,2.6c4.5,1.7,8.5,3.8,12,6.4L926,83.9z"
			/>
	</g>
	<g>
		<path class="st7" d="M98.1,154.3v35c-33.7-0.9-62.2-22.7-72.9-53l33.3-10.8C64.7,141.7,80,153.4,98.1,154.3z"/>
		<path class="st7" d="M55.5,109.5c0,4.1,0.5,8,1.6,11.7l-22.2,7.2c-1.7-6-2.7-12.3-2.7-18.9c0-21.9,10.3-41.3,26.3-53.8l13.7,18.9
			C62.1,82.8,55.5,95.4,55.5,109.5z"/>
		<path class="st7" d="M124.9,72c-7-4.6-15.5-7.3-24.5-7.3S82.9,67.4,75.9,72L48.5,34.2c14.8-10.2,32.6-16.2,51.9-16.2
			s37.2,6,51.9,16.2L124.9,72z"/>
		<path class="st7" d="M199.1,139.2l-55.5-18c1-3.7,1.6-7.7,1.6-11.7c0-14.1-6.5-26.7-16.7-34.9l34.3-47.2
			c24.7,18.8,40.7,48.6,40.7,82.1C203.5,119.9,201.9,129.8,199.1,139.2z"/>
		<path class="st7" d="M142.3,125.5l44.4,14.4c-12.3,34.9-45.1,60.1-84,61v-46.6C120.8,153.4,136.1,141.7,142.3,125.5z"/>
	</g>
</g>
</svg>
