<?xml version="1.0" encoding="utf-8"?>
<!-- Generator: Adobe Illustrator 21.1.0, SVG Export Plug-In . SVG Version: 6.00 Build 0)  -->
<svg version="1.1" id="Layer_1" xmlns="http://www.w3.org/2000/svg" xmlns:xlink="http://www.w3.org/1999/xlink" x="0px" y="0px"
	 viewBox="0 0 795 799" style="enable-background:new 0 0 795 799;" xml:space="preserve">
<style type="text/css">
	.st0{fill:url(#path5223_1_);}
	.st1{fill:#00C3FB;}
	.st2{fill:#423744;}
	.st3{fill:url(#path5223_2_);}
	.st4{fill:#00C3FA;}
	.st5{fill:#F4F4F4;}
	.st6{fill:#FFFFFF;}
</style>
<g>
	<path class="st6" d="M328.8,589.4v148.3c-142.8-3.9-263.5-96.4-309.2-224.5l141.1-45.8C186.9,536,251.8,585.6,328.8,589.4z"/>
	<path class="st6" d="M148.3,399.6c0,17.2,2.3,33.8,6.6,49.6l-94,30.6c-7.4-25.5-11.4-52.3-11.4-80.2c0-92.7,43.7-175.1,111.5-227.9
		l58.1,80C175.9,286.5,148.3,339.8,148.3,399.6z"/>
	<path class="st6" d="M442.1,240.5c-29.9-19.5-65.5-30.9-103.9-30.9s-74,11.4-103.9,30.9l-116.2-160
		c62.5-43.2,138.3-68.6,220.1-68.6s157.6,25.4,220.1,68.6L442.1,240.5z"/>
	<path class="st6" d="M756.8,525.6l-235.1-76.4c4.3-15.8,6.6-32.4,6.6-49.6c0-59.8-27.6-113.1-70.8-147.9l145.3-200
		c104.9,79.8,172.6,205.9,172.6,347.9C775.4,443.4,768.8,485.7,756.8,525.6z"/>
	<path class="st6" d="M515.9,467.3l188.1,61.1c-52.1,147.9-191.4,254.7-356.2,258.7V589.4C424.8,585.6,489.7,536,515.9,467.3z"/>
</g>
</svg>
